<?xml version="1.0" encoding="UTF-8"?>
<svg id="Layer_1" xmlns="http://www.w3.org/2000/svg" version="1.1" xmlns:xlink="http://www.w3.org/1999/xlink" viewBox="0 0 589.8 361.2">
  <!-- Generator: Adobe Illustrator 29.8.5, SVG Export Plug-In . SVG Version: 2.1.1 Build 2)  -->
  <defs>
    <style>
      .st0 {
        fill: url(#linear-gradient2);
      }

      .st1, .st2 {
        fill: #689f63;
      }

      .st3 {
        fill: url(#linear-gradient1);
      }

      .st4 {
        fill: #fff;
      }

      .st4, .st2 {
        fill-rule: evenodd;
      }

      .st5 {
        fill: none;
      }

      .st6 {
        clip-path: url(#clippath-1);
      }

      .st7 {
        clip-path: url(#clippath-2);
      }

      .st8 {
        fill: url(#linear-gradient);
      }

      .st9 {
        clip-path: url(#clippath);
      }
    </style>
    <clipPath id="clippath">
      <path class="st5" d="M214.3,83.5l-56.2,32.4c-2.1,1.2-3.4,3.5-3.4,5.9v64.9c0,2.4,1.3,4.7,3.4,5.9l56.2,32.4c2.1,1.2,4.7,1.2,6.8,0l56.2-32.4c2.1-1.2,3.4-3.5,3.4-5.9v-64.9c0-2.4-1.3-4.7-3.4-5.9l-56.2-32.4c-1.1-.6-2.2-.9-3.4-.9s-2.3.3-3.4.9h0Z"/>
    </clipPath>
    <linearGradient id="linear-gradient" x1="-664.1" y1="728.5" x2="-662.5" y2="728.5" gradientTransform="translate(-108876.5 31853.6) rotate(116.1) scale(115.3 -115.3)" gradientUnits="userSpaceOnUse">
      <stop offset=".3" stop-color="#3e863d"/>
      <stop offset=".5" stop-color="#55934f"/>
      <stop offset=".8" stop-color="#5aad45"/>
    </linearGradient>
    <clipPath id="clippath-1">
      <path class="st5" d="M156.1,190.8c.5.7,1.2,1.3,2,1.8l48.2,27.8,8,4.6c1.2.7,2.6,1,3.9.9.4,0,.9-.1,1.3-.2l59.2-108.5c-.5-.5-1-.9-1.6-1.3l-36.8-21.2-19.4-11.2c-.6-.3-1.2-.5-1.8-.7l-63.1,108Z"/>
    </clipPath>
    <linearGradient id="linear-gradient1" x1="-662.6" y1="718.2" x2="-661.6" y2="718.2" gradientTransform="translate(170074 32754.5) rotate(-36.5) scale(177.1 -177.1)" gradientUnits="userSpaceOnUse">
      <stop offset=".6" stop-color="#3e863d"/>
      <stop offset=".7" stop-color="#619857"/>
      <stop offset="1" stop-color="#76ac64"/>
    </linearGradient>
    <clipPath id="clippath-2">
      <path class="st5" d="M217,82.6c-.9,0-1.9.4-2.7.9l-56,32.3,60.4,110c.8-.1,1.7-.4,2.4-.8l56.2-32.4c1.7-1,2.9-2.7,3.3-4.6l-61.6-105.2c-.5,0-.9-.1-1.4-.1s-.4,0-.6,0h0Z"/>
    </clipPath>
    <linearGradient id="linear-gradient2" x1="-658.8" y1="719.2" x2="-657.9" y2="719.2" gradientTransform="translate(85735.1 93576.1) scale(129.9 -129.9)" gradientUnits="userSpaceOnUse">
      <stop offset=".2" stop-color="#6bbf47"/>
      <stop offset=".4" stop-color="#79b461"/>
      <stop offset=".5" stop-color="#75ac64"/>
      <stop offset=".7" stop-color="#659e5a"/>
      <stop offset=".9" stop-color="#3e863d"/>
    </linearGradient>
  </defs>
  <path class="st1" d="M291.5,361.2c-1.9,0-3.9-.5-5.6-1.5l-17.8-10.5c-2.7-1.5-1.4-2-.5-2.3,3.5-1.2,4.3-1.5,8-3.7.4-.2.9-.1,1.3,0l13.7,8.1c.5.3,1.2.3,1.7,0l53.3-30.7c.5-.3.8-.9.8-1.4v-61.5c0-.6-.3-1.2-.8-1.5l-53.2-30.7c-.5-.3-1.1-.3-1.6,0l-53.2,30.7c-.5.3-.8.9-.8,1.5v61.5c0,.6.3,1.1.8,1.4l14.6,8.4c7.9,4,12.8-.7,12.8-5.4v-60.7c0-.9.7-1.5,1.5-1.5h6.7c.8,0,1.5.7,1.5,1.5v60.7c0,10.6-5.8,16.6-15.8,16.6s-5.5,0-12.3-3.3l-14-8.1c-3.5-2-5.6-5.7-5.6-9.7v-61.5c0-4,2.1-7.7,5.6-9.7l53.3-30.8c3.4-1.9,7.9-1.9,11.2,0l53.3,30.8c3.4,2,5.6,5.7,5.6,9.7v61.5c0,4-2.1,7.7-5.6,9.7l-53.3,30.8c-1.7,1-3.6,1.5-5.6,1.5"/>
  <path class="st1" d="M308,318.9c-23.3,0-28.2-10.7-28.2-19.7s.7-1.5,1.5-1.5h6.9c.8,0,1.4.6,1.5,1.3,1,7,4.1,10.5,18.2,10.5s16-2.5,16-8.5-1.4-6-18.8-7.7c-14.6-1.4-23.6-4.7-23.6-16.3s9.1-17.1,24.3-17.1,25.5,5.9,26.6,18.6c0,.4-.1.9-.4,1.2-.3.3-.7.5-1.1.5h-6.9c-.7,0-1.3-.5-1.5-1.2-1.7-7.4-5.7-9.7-16.6-9.7s-13.7,4.3-13.7,7.5,1.7,5,18.2,7.2c16.4,2.2,24.1,5.2,24.1,16.7s-9.7,18.3-26.6,18.3M372.8,253.8h1.8c1.5,0,1.7-1,1.7-1.6,0-1.6-1.1-1.6-1.7-1.6h-1.8v3.2ZM370.6,248.7h4c1.4,0,4,0,4,3s-1.4,2.6-2.2,2.8c1.6.1,1.7,1.1,1.9,2.6.1.9.3,2.5.6,3h-2.4c0-.5-.4-3.5-.4-3.6-.2-.7-.4-1-1.2-1h-2v4.6h-2.2v-11.5ZM365.9,254.5c0,4.8,3.9,8.6,8.6,8.6s8.6-3.9,8.6-8.6-3.9-8.6-8.6-8.6-8.6,3.7-8.6,8.6M384.7,254.5c0,5.7-4.6,10.3-10.3,10.3s-10.3-4.6-10.3-10.3,4.8-10.3,10.3-10.3,10.3,4.5,10.3,10.3"/>
  <path class="st4" d="M126.6,120.7c0-2.5-1.3-4.7-3.4-5.9l-56.5-32.5c-1-.6-2-.9-3.1-.9h-.6c-1.1,0-2.2.3-3.1.9L3.4,114.8C1.3,116,0,118.3,0,120.7v87.5c.1,1.2.8,2.3,1.8,2.9,1,.6,2.3.6,3.4,0l33.6-19.2c2.1-1.3,3.4-3.5,3.4-5.9v-40.9c0-2.4,1.3-4.7,3.4-5.9l14.3-8.2c1.1-.6,2.2-.9,3.4-.9s2.4.3,3.4.9l14.3,8.2c2.1,1.2,3.4,3.5,3.4,5.9v40.9c0,2.4,1.3,4.7,3.4,5.9l33.6,19.2c1.1.6,2.4.6,3.4,0,1-.6,1.7-1.7,1.7-2.9v-87.5ZM393.1,166.3c0,.6-.3,1.2-.9,1.5l-19.4,11.2c-.5.3-1.2.3-1.7,0l-19.4-11.2c-.5-.3-.9-.9-.9-1.5v-22.4c0-.6.3-1.2.8-1.5l19.4-11.2c.5-.3,1.2-.3,1.7,0l19.4,11.2c.5.3.9.9.9,1.5v22.4ZM398.3.4c-1.1-.6-2.3-.6-3.4,0-1,.6-1.7,1.7-1.7,2.9v86.7c0,.9-.5,1.6-1.2,2.1-.7.4-1.6.4-2.4,0l-14.1-8.1c-2.1-1.2-4.7-1.2-6.8,0l-56.5,32.6c-2.1,1.2-3.4,3.5-3.4,5.9v65.2c0,2.4,1.3,4.7,3.4,5.9l56.5,32.6c2.1,1.2,4.7,1.2,6.8,0l56.5-32.6c2.1-1.2,3.4-3.5,3.4-5.9V25.2c0-2.5-1.3-4.8-3.5-6L398.3.4ZM586.4,143.3c2.1-1.2,3.4-3.5,3.4-5.9v-15.8c0-2.4-1.3-4.7-3.4-5.9l-56.1-32.6c-2.1-1.2-4.7-1.2-6.8,0l-56.5,32.6c-2.1,1.2-3.4,3.5-3.4,5.9v65.2c0,2.5,1.3,4.7,3.4,5.9l56.1,32c2.1,1.2,4.6,1.2,6.7,0l33.9-18.9c1.1-.6,1.7-1.7,1.7-3s-.7-2.4-1.7-3l-56.8-32.6c-1.1-.6-1.7-1.7-1.7-2.9v-20.5c0-1.2.6-2.3,1.7-3l17.7-10.2c1.1-.6,2.3-.6,3.4,0l17.7,10.2c1.1.6,1.7,1.7,1.7,2.9v16.1c0,1.2.7,2.3,1.7,3,1.1.6,2.4.6,3.4,0l33.9-19.7Z"/>
  <path class="st2" d="M526.1,140.3c.4-.2.9-.2,1.3,0l10.8,6.3c.4.2.7.7.7,1.1v12.5c0,.5-.2.9-.7,1.1l-10.8,6.3c-.4.2-.9.2-1.3,0l-10.8-6.3c-.4-.2-.7-.7-.7-1.1v-12.5c0-.5.2-.9.7-1.1l10.8-6.3Z"/>
  <g class="st9">
    <path class="st8" d="M337.4,110.4L179.1,32.8l-81.2,165.6,158.3,77.6,81.2-165.6Z"/>
  </g>
  <g class="st6">
    <path class="st3" d="M87.7,133.3l111.8,151.3,147.8-109.2L235.5,24.1l-147.8,109.2Z"/>
  </g>
  <g class="st7">
    <path class="st0" d="M158.3,82.6v143.2h122.2V82.6h-122.2Z"/>
  </g>
</svg>