<?xml version="1.0" encoding="UTF-8"?>
<svg id="Logo" xmlns="http://www.w3.org/2000/svg" version="1.1" xmlns:cc="http://creativecommons.org/ns#" xmlns:dc="http://purl.org/dc/elements/1.1/" xmlns:inkscape="http://www.inkscape.org/namespaces/inkscape" xmlns:rdf="http://www.w3.org/1999/02/22-rdf-syntax-ns#" xmlns:sodipodi="http://sodipodi.sourceforge.net/DTD/sodipodi-0.dtd" xmlns:svg="http://www.w3.org/2000/svg" viewBox="0 0 324.9 367.8">
  <!-- Generator: Adobe Illustrator 29.8.5, SVG Export Plug-In . SVG Version: 2.1.1 Build 2)  -->
  <defs>
    <style>
      .st0 {
        fill: #fff;
      }

      .st1 {
        fill: #bbb;
      }

      .st2 {
        fill: #ccc;
      }
    </style>
  </defs>
  <sodipodi:namedview id="namedview15" bordercolor="#666666" borderopacity="1" gridtolerance="10" guidetolerance="10" inkscape:current-layer="Logo" inkscape:cx="481.73464" inkscape:cy="72.632202" inkscape:pageopacity="0" inkscape:pageshadow="2" inkscape:window-height="705" inkscape:window-maximized="1" inkscape:window-width="1366" inkscape:window-x="-8" inkscape:window-y="-8" inkscape:zoom="0.5" objecttolerance="10" pagecolor="#ffffff" showgrid="false"/>
  <g id="g849">
    <path id="path8" class="st0" d="M162.5,367.8l148.7-85.8-56.7-33-58.2,33.7c-2.3,1.5-4.6,0-4.6-3.1v-79.7c0-2.3,1.5-4.6,3.1-5.4l69-39.8c2.3-1.5,4.6,0,4.6,3.1v67.4l56.7,33V85.8l-162.5,94.3v187.7h-.1Z"/>
    <path id="path10" class="st1" d="M177,0v65.9l58.2,33.7c2.3,1.5,2.3,4.6,0,5.4l-69,39.8c-2.3,1.5-4.6.8-6.1,0l-69-39.8c-2.3-.8-2.3-4.6,0-5.4l58.2-33.7V0L0,85.8l162.5,94.3,162.5-94.3L177,0Z"/>
    <path id="path12" class="st2" d="M129.5,282.8l-58.2-33.7-56.7,33,148.7,85.8v-187.7L0,85.8v171.6-.8.8l56.7-33v-67.4c0-2.3,3.1-3.8,4.6-3.1l69,39.8c2.3,1.5,3.1,3.1,3.1,5.4v79.7c.8,3.1-1.5,5.4-3.8,3.8v.2h-.1Z"/>
  </g>
</svg>